<?xml version="1.0" encoding="UTF-8" standalone="no"?>
<!-- Created with Inkscape (http://www.inkscape.org/) -->
<svg height="250" width="250" xmlns="http://www.w3.org/2000/svg" xmlns:xlink="http://www.w3.org/1999/xlink">
  <defs>
    <linearGradient id="linearGradient3939">
      <stop offset="0" stop-color="#515151"/>
      <stop offset="1"/>
    </linearGradient>
    <linearGradient id="linearGradient3838">
      <stop offset="0" stop-color="#fff"/>
      <stop offset="1" stop-color="#fff" stop-opacity="0"/>
    </linearGradient>
    <filter id="filter3801">
      <feGaussianBlur stdDeviation="7.1961722"/>
    </filter>
    <clipPath id="clipPath3809">
      <path d="m160 63a94 94 0 1 1 -188 0 94 94 0 1 1 188 0z" filter="url(#filter3801)" transform="matrix(1.0192088 0 0 1.0192088 -1.267779 -1.210152)"/>
    </clipPath>
    <radialGradient cx="66" cy="63" fx="69.022705" fy="109.85191" gradientUnits="userSpaceOnUse" r="94">
      <stop offset="0" stop-color="#393939" stop-opacity="0"/>
      <stop offset=".70353073" stop-color="#393939" stop-opacity=".144509"/>
      <stop offset=".85176539" stop-color="#393939" stop-opacity=".572549"/>
      <stop offset="1"/>
    </radialGradient>
    <filter id="filter3884">
      <feGaussianBlur stdDeviation="1.3492823"/>
    </filter>
    <linearGradient id="linearGradient3912" gradientUnits="userSpaceOnUse" x1="79.82045" x2="79.82045" y1="-32.079426" y2="203.27065">
      <stop offset="0"/>
      <stop offset="1" stop-opacity="0"/>
    </linearGradient>
    <linearGradient id="linearGradient3914" gradientUnits="userSpaceOnUse" x1="66.619331" x2="66.619331" y1="-31.00098" y2="164.58943">
      <stop offset="0" stop-color="#e9e9e9"/>
      <stop offset=".31598574" stop-color="#fff"/>
      <stop offset="1" stop-color="#fff"/>
    </linearGradient>
    <linearGradient id="linearGradient3916" gradientUnits="userSpaceOnUse" x1="66" x2="66" y1="157" y2="-31">
      <stop offset="0" stop-color="#f6f6f6"/>
      <stop offset=".3583397" stop-color="#bcb9b8"/>
      <stop offset=".43154052" stop-color="#312e2d"/>
      <stop offset=".47642162" stop-color="#9b9493"/>
      <stop offset=".56865364" stop-color="#fff"/>
      <stop offset=".71001911" stop-color="#d3d3d3"/>
      <stop offset=".8135038" stop-color="#ada7a3"/>
      <stop offset="1" stop-color="#fff"/>
    </linearGradient>
    <radialGradient id="radialGradient3918" cx="66" cy="63" fx="69.022705" fy="109.85191" gradientTransform="matrix(1.026526 -.00000003 .00000003 1.026526 -1.750717 -1.671135)" gradientUnits="userSpaceOnUse" r="94">
      <stop offset="0" stop-color="#393939" stop-opacity="0"/>
      <stop offset=".64334816" stop-color="#393939" stop-opacity=".092683"/>
      <stop offset=".92916411" stop-color="#393939" stop-opacity=".572549"/>
      <stop offset="1"/>
    </radialGradient>
    <radialGradient id="radialGradient3927" cx="125.5041" cy="167.16315" gradientTransform="matrix(.8923782 0 0 .62782401 13.506977 32.759565)" gradientUnits="userSpaceOnUse" r="92.861908" xlink:href="#linearGradient3838"/>
    <linearGradient id="linearGradient3930" gradientUnits="userSpaceOnUse" x1="83.56278798795" x2="114.90954485868" xlink:href="#linearGradient3838" y1="36.60176156198" y2="185.54270485751"/>
    <linearGradient id="linearGradient4012" gradientTransform="matrix(.77099945 -.63683581 .63683581 .77099945 -57.36699 112.71357)" gradientUnits="userSpaceOnUse" x1="211.94576" x2="134.93153" y1="115.60049" y2="134.33568">
      <stop offset="0" stop-color="#a2a2a2"/>
      <stop offset="1" stop-color="#eaeaea"/>
    </linearGradient>
    <linearGradient id="linearGradient4038" gradientUnits="userSpaceOnUse" x1="75.865326" x2="134.54863" y1="109.63228" y2="109.63228">
      <stop offset="0" stop-color="#e9e9e6"/>
      <stop offset="1" stop-color="#fff"/>
    </linearGradient>
    <radialGradient id="radialGradient4040" cx="66" cy="63" fx="68.168884" fy="4.440037" gradientUnits="userSpaceOnUse" r="94" xlink:href="#linearGradient3939"/>
    <filter id="filter4056" height="1.218182" width="1.218182" x="-.109091" y="-.109091">
      <feGaussianBlur stdDeviation="8.5454545"/>
    </filter>
    <filter id="filter4062">
      <feGaussianBlur stdDeviation=".49762598"/>
    </filter>
    <filter id="filter4070">
      <feGaussianBlur stdDeviation=".89175739"/>
    </filter>
    <filter id="filter4076">
      <feGaussianBlur stdDeviation=".58543213"/>
    </filter>
    <radialGradient id="radialGradient4110" cx="123.99960216" cy="212.00044888" fx="124.07179945006" fy="210.05111888605" gradientUnits="userSpaceOnUse" r="3.12904944" xlink:href="#linearGradient3939"/>
    <radialGradient id="radialGradient4114" cx="66" cy="63" fx="68.168884" fy="4.440037" gradientTransform="matrix(0 .03328776 -.03328776 0 38.971695 122.67762)" gradientUnits="userSpaceOnUse" r="94" xlink:href="#linearGradient3939"/>
    <radialGradient id="radialGradient4118" cx="66" cy="63" fx="68.168884" fy="4.440037" gradientTransform="matrix(0 .03328776 -.03328776 0 213.2217 122.67762)" gradientUnits="userSpaceOnUse" r="94" xlink:href="#linearGradient3939"/>
  </defs>
  <path d="m160 63a94 94 0 1 1 -188 0 94 94 0 1 1 188 0z" fill="url(#linearGradient3912)" filter="url(#filter3884)" transform="matrix(1.2180852 0 0 -1.2180852 43.606383 201.73937)"/>
  <path d="m160 63a94 94 0 1 1 -188 0 94 94 0 1 1 188 0z" fill="url(#linearGradient3914)" transform="matrix(1.2180852 0 0 -1.2180852 43.606383 201.73937)"/>
  <path d="m160 63a94 94 0 1 1 -188 0 94 94 0 1 1 188 0z" fill="url(#linearGradient3916)" transform="matrix(1.2065342 0 0 1.2065342 44.368744 48.988346)"/>
  <path d="m160 63a94 94 0 1 1 -188 0 94 94 0 1 1 188 0z" fill="#f5f5f5" transform="matrix(1.0673486 0 0 1.0673486 53.554999 57.757044)"/>
  <path clip-path="url(#clipPath3809)" d="m168.98344 63a102.98344 102.98344 0 1 1 -205.966877 0 102.98344 102.98344 0 1 1 205.966877 0z" fill="url(#radialGradient3918)" filter="url(#filter3801)" opacity=".785366" transform="matrix(1.0331959 0 0 1.0331959 55.809072 59.908659)"/>
  <path d="m124.02855 31.40778c-51.578537 0-93.38635 41.807813-93.38635 93.38635 0 7.9978 1.010735 15.7718 2.901936 23.18051.993948.005 1.974691.0349 2.971861.0349 75.284843 0 141.498243-14.81387 179.850013-37.27062-6.77575-44.9137-45.53382-79.331248-92.33746-79.331248z" fill="url(#linearGradient3930)"/>
  <path d="m124.02855 31.40778c-51.578537 0-93.38635 41.807813-93.38635 93.38635 0 7.9978 1.010735 15.7718 2.901936 23.18051.993948.005 1.974691.0349 2.971861.0349 75.284843 0 141.498243-14.81387 179.850013-37.27062-6.77575-44.9137-45.53382-79.331248-92.33746-79.331248z" fill="url(#radialGradient3927)"/>
  <path d="m113.60092 133.62346 75.94345-62.728326-67.73928 60.491346z"/>
  <rect fill-opacity=".485549" filter="url(#filter4076)" height="89.25" transform="matrix(-.87909978 .47663778 .47663778 .87909978 -1 1)" width="1" x="-49.884197" y="159.59009"/>
  <path d="m118.13605 121.79498-7.75 3.5 7.75 3.5 90.75-3.5z" filter="url(#filter4062)" opacity=".317073" transform="matrix(.77099945 -.63683581 .63683581 .77099945 -51.198994 107.61889)"/>
  <path d="m113.60092 133.62346 75.94345-62.728326-72.19713 55.094356z" fill="url(#linearGradient4012)"/>
  <path d="m118.01221 121.04894-7.75 3.5 7.75 3.5 67.94864-3.41001z" filter="url(#filter4070)" opacity=".326829" transform="matrix(-.77597269 -.6307665 .6307665 -.77597269 141.44781 300.23756)"/>
  <path d="m134.54863 133.54128-58.683304-47.818 54.877204 40.21365z" fill="url(#linearGradient4038)"/>
  <path d="m134.54863 133.44128-58.683305-47.718007 50.461845 45.645467z" fill="#090909"/>
  <path d="m160 63a94 94 0 1 1 -188 0 94 94 0 1 1 188 0z" fill="url(#radialGradient4040)" filter="url(#filter4056)" transform="matrix(.01664388 0 0 .01664388 122.90151 123.95145)"/>
  <rect fill="#b70000" height="89.25" transform="matrix(-.87909978 .47663778 .47663778 .87909978 0 0)" width="1" x="-49.884197" y="159.59009"/>
  <path d="m160 63a94 94 0 1 1 -188 0 94 94 0 1 1 188 0z" fill="url(#radialGradient4040)" transform="matrix(.01664388 0 0 .01664388 122.90151 123.95145)"/>
  <path d="m119.21875 36c-.14368 0-.14156.0076-.21875.03125-.0772.02361-.17129.05593-.28125.09375-.21992.07564-.50676.177074-.8125.28125-.61148.208352-1.32548.441733-1.75.5a.32177063.32177063 0 0 0 -.0313 0c-.24056.04148-.5376.05267-.8125.09375-.13745.02054-.27118.05432-.40625.125s-.28125.236922-.28125.4375c0 .151602.0829.327171.21875.40625.13588.07908.27385.09375.40625.09375.68741 0 1.30745-.105234 1.96875-.21875.007 1.548822.0625 3.089785.0625 4.625 0 1.389532-.0147 3.69763-.0625 4.96875-.203.01139-.42279.0022-.78125.03125-.48804.03949-.9927.09192-1.375.1875a.32177063.32177063 0 0 0 -.0313 0c-.0918.03062-.15567.08507-.21875.15625-.0631.07118-.125.177317-.125.3125 0 .127206.0268.276835.125.375.0982.09817.2478.125.375.125.16348 0 .54683-.0079 1.125-.03125.57817-.02333 1.32694-.0625 2.1875-.0625.83211 0 1.56881.03918 2.125.0625s.90501.03125 1.0625.03125c.1272 0 .27683-.02683.375-.125.0982-.09817.125-.247794.125-.375 0-.135183-.0619-.241323-.125-.3125-.0631-.07118-.1269-.125631-.21875-.15625-.366-.09689-.87956-.147957-1.34375-.1875-.33324-.02839-.52606-.01981-.71875-.03125-.0654-1.261533-.0937-3.572611-.0937-4.96875 0-.822628.0391-2.179816.0625-3.375s.0313-2.207087.0313-2.40625c0-.149429.00001-.285522-.0937-.4375-.0938-.151978-.30046-.25-.46875-.25zm10.21875 0c-1.62106 0-2.8455.732264-3.65625 1.5-.40538.383868-.69965.763161-.90625 1.09375-.1033.165294-.19377.308607-.25.4375-.0562.128893-.0937.218111-.0937.375 0 .126043.0585.265533.15625.34375.0978.07822.20885.09375.3125.09375.20797 0 .29782-.108289.375-.1875.0772-.07921.14295-.149733.21875-.25.15159-.200533.32873-.444714.5625-.6875.46753-.485572 1.12614-.96875 2.1875-.96875 1.50597 0 2.15625 1.01416 2.15625 1.96875 0 1.26629-.83905 2.7523-1.90625 4.0625s-2.35968 2.440429-3.125 3.09375c-.26871.22238-.51011.442836-.71875.625-.10432.09108-.20579.162026-.28125.25-.0755.08797-.15625.169286-.15625.375 0 .177114.11345.370252.25.4375.13655.06725.26694.0625.375.0625.21283 0 .81606-.04383 1.65625-.0625.83416-.03707 1.89422-.03125 2.875-.03125.99833 0 2.01462.04512 2.875.09375.0262.17835.0486.341977.0937.53125.0331.138815.0848.279587.15625.40625.0715.126663.21565.28125.4375.28125.11779 0 .25104-.03229.34375-.125.0927-.09271.125-.225965.125-.34375 0-.390316-.125-1.131674-.125-2.21875 0-.32919.0314-.835076.0625-1.28125s.0625-.811293.0625-1c0-.08578.00073-.183636-.0625-.3125-.0632-.128864-.24421-.25-.40625-.25-.1739 0-.28257.102236-.34375.1875-.0612.08526-.095.160223-.125.25-.06.179555-.12263.402105-.15625.625-.0545.361138-.0639.678579-.0937.9375-.83793.247088-1.78331.453707-3.21875.59375-.67031.06324-1.39401.08939-2.09375.125l.15625-.125c.71878-.578758 2.22149-1.713957 3.53125-3.09375s2.46875-3.002813 2.46875-4.625c0-.901692-.34827-1.706912-1-2.28125-.65178-.574338-1.5835-.90625-2.7188-.90625z" fill="#fff"/>
  <text fill="#282828" font-family="Bernhard Modern Std" font-size="18.833977" font-weight="bold" x="112.94041" y="48.205128"><tspan x="112.94041" y="48.205128">12</tspan></text>
  <path d="m123.91639 208.80586c-1.3228.016-2.56062.94334-2.9552 2.20162-.41216 1.21464.00092 2.64942.99852 3.45226.9864.846 2.51182.97624 3.63042.31296 1.11202-.62082 1.76756-1.94944 1.57426-3.21296-.168-1.36694-1.31496-2.52992-2.679-2.71746-.1874-.0304-.37884-.0412-.569-.0364z" fill="url(#radialGradient4110)" opacity=".62439"/>
  <path d="m40.069151 124.7914c-.0152-1.3228-.943344-2.56062-2.201614-2.9552-1.214646-.41216-2.64943.00092-3.452254.99852-.84601.9864-.97625 2.51182-.312964 3.63042.62081 1.11202 1.949426 1.76756 3.212958 1.57426 1.366932-.168 2.529922-1.31496 2.717466-2.679.0303-.1874.04124-.37884.0364-.569z" fill="url(#radialGradient4114)" opacity=".62439"/>
  <path d="m214.31916 124.7914c-.016-1.3228-.94334-2.56062-2.20162-2.9552-1.21464-.41216-2.64942.00092-3.45226.99852-.846.9864-.97624 2.51182-.31296 3.63042.62082 1.11202 1.94944 1.76756 3.21296 1.57426 1.36694-.168 2.52992-1.31496 2.71746-2.679.0304-.1874.0412-.37884.0364-.569z" fill="url(#radialGradient4118)" opacity=".62439"/>
</svg>
